<?xml version="1.0" encoding="utf-8"?>
<!-- Generator: Adobe Illustrator 25.4.0, SVG Export Plug-In . SVG Version: 6.00 Build 0)  -->
<svg version="1.1" id="katman_1" xmlns="http://www.w3.org/2000/svg" xmlns:xlink="http://www.w3.org/1999/xlink" x="0px" y="0px"
	 viewBox="0 0 800 800" style="enable-background:new 0 0 800 800;" xml:space="preserve">
<g>
	<g>
		<g>
			<path d="M313.59,230.87h96.65L297.21,654.31c-7.37,31.94-48.32,49.14-77.81,49.14H13l76.99-74.53H206.3l11.47-44.23
				c-52.42,0-163.81,11.47-163.81-70.44c0-54.88,36.04-152.34,50.78-205.58c14.74-50.78,68.8-78.63,117.94-78.63
				c30.3,0,59.79,4.1,89.28,6.55L313.59,230.87z M293.11,307.04c-18.02-1.64-38.5-2.46-56.51-2.46c-15.56,0-35.22,4.09-40.13,22.93
				c-15.56,57.33-29.49,117.94-46.69,176.91c2.46,4.92,17.2,4.92,21.3,4.92h67.16L293.11,307.04z"/>
			<path d="M627.29,114.56l-31.94,116.31h129.41l-63.89,74.53h-84.36L459.38,761.61l-49.14-196.57l67.98-259.64h-49.14l20.48-74.53
				h49.14c20.48-74.53,15.56-192.48,114.67-192.48H787l-65.52,76.17H627.29z"/>
		</g>
	</g>
</g>
</svg>
