<?xml version="1.0" encoding="utf-8"?>
<!-- Generator: Adobe Illustrator 25.4.0, SVG Export Plug-In . SVG Version: 6.00 Build 0)  -->
<svg version="1.1" id="katman_1" xmlns="http://www.w3.org/2000/svg" xmlns:xlink="http://www.w3.org/1999/xlink" x="0px" y="0px"
	 viewBox="0 0 500 500" style="enable-background:new 0 0 500 500;" xml:space="preserve">
<style type="text/css">
	.st0{fill:#D8D8D8;}
</style>
<g>
	<g>
		<g>
			<path class="st0" d="M49.97,225.26H64.1L47.57,287.2c-1.08,4.67-7.07,7.19-11.38,7.19H6l11.26-10.9h17.01l1.68-6.47
				c-7.67,0-23.96,1.68-23.96-10.3c0-8.03,5.27-22.28,7.43-30.07c2.16-7.43,10.06-11.5,17.25-11.5c4.43,0,8.75,0.6,13.06,0.96
				L49.97,225.26z M46.97,236.4c-2.64-0.24-5.63-0.36-8.27-0.36c-2.28,0-5.15,0.6-5.87,3.35c-2.28,8.39-4.31,17.25-6.83,25.88
				c0.36,0.72,2.52,0.72,3.11,0.72h9.82L46.97,236.4z"/>
			<path class="st0" d="M82.07,277.01h-24.8l21.32-79.91h14.38l-18.81,70.2L82.07,277.01z"/>
			<path class="st0" d="M135.74,231.61c0,3.95-8.39,32.35-9.82,37.98c-1.56,5.39-6.11,7.43-11.38,7.43H92.97
				c-4.19,0-8.51-1.32-8.51-6.11c0-5.15,7.79-31.51,9.58-38.22c1.32-5.51,5.99-7.43,11.14-7.43h21.68
				C131.07,225.26,135.74,226.82,135.74,231.61z M107.23,236.16l-7.79,29.83h13.18l7.79-29.83H107.23z"/>
			<path class="st0" d="M183.3,231.37c0,3.23-1.92,6.95-2.64,10.3l-15.81,6.11l3-11.14h-10.06L147,277.01h-13.54l10.54-42.29
				l-7.55-9.46h24.44l-0.24,0.72c4.31-0.24,9.1-0.84,13.78-0.84C178.51,225.14,183.3,226.34,183.3,231.37z"/>
			<path class="st0" d="M188.81,225.26h14.14l-14.14,52.47h-13.9L188.81,225.26z M193.24,207.05h14.62l-3.59,13.66h-14.62
				L193.24,207.05z"/>
			<path class="st0" d="M247.87,231.61c0,4.07-11.74,48.16-13.66,55.23l-10.9-11.02c-5.63,0.6-11.74,1.32-17.73,1.32
				c-4.07,0-8.75-1.32-8.75-6.11c0-6.11,3-13.18,4.67-19.17c1.8-6.95,7.43-7.43,13.54-7.43l-8.27-10.42
				c2.52-6.11,4.31-8.75,11.74-8.75h20.49C243.2,225.26,247.87,226.82,247.87,231.61z M214.69,254.85l-2.99,10.9h13.54l2.88-10.9
				H214.69z M220.44,236.04l-2.28,8.39h12.7l2.16-8.39H220.44z"/>
			<path class="st0" d="M277.1,208.25l-4.67,17.01h18.93l-9.34,10.9h-12.34l-17.13,66.73l-7.19-28.75l9.94-37.98h-7.19l3-10.9h7.19
				c2.99-10.9,2.28-28.15,16.77-28.15h25.4l-9.58,11.14H277.1z"/>
			<path class="st0" d="M333.05,231.61c0,3.95-8.39,32.35-9.82,37.98c-1.56,5.39-6.11,7.43-11.38,7.43h-21.56
				c-4.19,0-8.51-1.32-8.51-6.11c0-5.15,7.79-31.51,9.58-38.22c1.32-5.51,5.99-7.43,11.14-7.43h21.68
				C328.37,225.26,333.05,226.82,333.05,231.61z M304.53,236.16l-7.79,29.83h13.18l7.79-29.83H304.53z"/>
			<path class="st0" d="M380.61,231.37c0,3.23-1.92,6.95-2.64,10.3l-15.81,6.11l3-11.14h-10.06l-10.78,40.37h-13.54l10.54-42.29
				l-7.55-9.46h24.44l-0.24,0.72c4.31-0.24,9.1-0.84,13.78-0.84C375.81,225.14,380.61,226.34,380.61,231.37z"/>
			<path class="st0" d="M424.09,231.61c0,4.55-2.52,10.54-3.59,14.85l-12.58-5.99l1.2-4.31H396.9l-7.79,29.83h12.22l1.2-5.15
				l16.17-7.67c-2.64,9.58-2.76,23.84-15.69,23.84h-20.37c-4.43,0-8.39-1.68-8.39-6.83c0-4.55,7.67-31.27,9.58-37.5
				c1.2-5.51,5.99-7.43,11.14-7.43h20.37C419.42,225.26,424.09,226.82,424.09,231.61z"/>
			<path class="st0" d="M471.05,231.61c0,5.75-3.83,14.62-5.27,20.25l-5.03,3.23h-22.64l-2.88,11.02h11.5l8.75,10.9h-26.36
				c-4.19,0-8.51-1.44-8.51-6.47c0-4.31,7.91-32.23,9.58-37.86c1.32-5.51,5.99-7.43,11.14-7.43h20.73
				C466.26,225.26,471.05,226.82,471.05,231.61z M453.68,244.43l2.28-8.39h-12.7l-2.16,8.39H453.68z"/>
		</g>
		<g>
			<g>
				<path class="st0" d="M485.31,216.96c4.89,0,8.69,3.8,8.69,8.53c0,4.84-3.8,8.58-8.74,8.58c-4.89,0-8.79-3.75-8.79-8.58
					c0-4.73,3.9-8.53,8.79-8.53H485.31z M485.21,218.68c-3.75,0-6.56,3.07-6.56,6.82c0,3.8,2.81,6.82,6.66,6.82
					c3.75,0.05,6.5-3.02,6.5-6.82c0-3.75-2.76-6.82-6.56-6.82H485.21z M483.91,229.92h-1.98v-8.48c0.78-0.16,1.87-0.31,3.28-0.31
					c1.61,0,2.34,0.26,2.97,0.68c0.47,0.36,0.83,1.04,0.83,1.82c0,0.99-0.73,1.72-1.77,2.03v0.1c0.83,0.26,1.3,0.94,1.56,2.08
					c0.26,1.3,0.42,1.82,0.62,2.08h-2.13c-0.26-0.31-0.42-1.04-0.68-2.03c-0.16-0.94-0.68-1.35-1.77-1.35h-0.94V229.92z
					 M483.96,225.13h0.94c1.09,0,1.98-0.36,1.98-1.25c0-0.78-0.57-1.3-1.82-1.3c-0.52,0-0.88,0.05-1.09,0.1V225.13z"/>
			</g>
		</g>
	</g>
</g>
</svg>
